<svg id="visual" viewBox="0 0 900 600" width="900" height="600" xmlns="http://www.w3.org/2000/svg" xmlns:xlink="http://www.w3.org/1999/xlink" version="1.1"><path d="M0 151L13.7 144C27.3 137 54.7 123 82 121C109.3 119 136.7 129 163.8 147C191 165 218 191 245.2 191C272.3 191 299.7 165 327 153C354.3 141 381.7 143 409 144C436.3 145 463.7 145 491 151C518.3 157 545.7 169 573 184C600.3 199 627.7 217 654.8 212C682 207 709 179 736.2 157C763.3 135 790.7 119 818 108C845.3 97 872.7 91 886.3 88L900 85L900 0L886.3 0C872.7 0 845.3 0 818 0C790.7 0 763.3 0 736.2 0C709 0 682 0 654.8 0C627.7 0 600.3 0 573 0C545.7 0 518.3 0 491 0C463.7 0 436.3 0 409 0C381.7 0 354.3 0 327 0C299.7 0 272.3 0 245.2 0C218 0 191 0 163.8 0C136.7 0 109.3 0 82 0C54.7 0 27.3 0 13.7 0L0 0Z" fill="#6198ff"></path><path d="M0 241L13.7 247C27.3 253 54.7 265 82 268C109.3 271 136.7 265 163.8 276C191 287 218 315 245.2 309C272.3 303 299.7 263 327 256C354.3 249 381.7 275 409 284C436.3 293 463.7 285 491 285C518.3 285 545.7 293 573 311C600.3 329 627.7 357 654.8 354C682 351 709 317 736.2 285C763.3 253 790.7 223 818 212C845.3 201 872.7 209 886.3 213L900 217L900 83L886.3 86C872.7 89 845.3 95 818 106C790.7 117 763.3 133 736.2 155C709 177 682 205 654.8 210C627.7 215 600.3 197 573 182C545.7 167 518.3 155 491 149C463.7 143 436.3 143 409 142C381.7 141 354.3 139 327 151C299.7 163 272.3 189 245.2 189C218 189 191 163 163.8 145C136.7 127 109.3 117 82 119C54.7 121 27.3 135 13.7 142L0 149Z" fill="#3c80ff"></path><path d="M0 457L13.7 461C27.3 465 54.7 473 82 473C109.3 473 136.7 465 163.8 453C191 441 218 425 245.2 424C272.3 423 299.7 437 327 447C354.3 457 381.7 463 409 465C436.3 467 463.7 465 491 454C518.3 443 545.7 423 573 429C600.3 435 627.7 467 654.8 476C682 485 709 471 736.2 456C763.3 441 790.7 425 818 419C845.3 413 872.7 417 886.3 419L900 421L900 215L886.3 211C872.7 207 845.3 199 818 210C790.7 221 763.3 251 736.2 283C709 315 682 349 654.8 352C627.7 355 600.3 327 573 309C545.7 291 518.3 283 491 283C463.7 283 436.3 291 409 282C381.7 273 354.3 247 327 254C299.7 261 272.3 301 245.2 307C218 313 191 285 163.8 274C136.7 263 109.3 269 82 266C54.7 263 27.3 251 13.7 245L0 239Z" fill="#0066ff"></path><path d="M0 535L13.7 535C27.3 535 54.7 535 82 535C109.3 535 136.7 535 163.8 533C191 531 218 527 245.2 525C272.3 523 299.7 523 327 527C354.3 531 381.7 539 409 543C436.3 547 463.7 547 491 540C518.3 533 545.7 519 573 520C600.3 521 627.7 537 654.8 537C682 537 709 521 736.2 518C763.3 515 790.7 525 818 532C845.3 539 872.7 543 886.3 545L900 547L900 419L886.3 417C872.7 415 845.3 411 818 417C790.7 423 763.3 439 736.2 454C709 469 682 483 654.8 474C627.7 465 600.3 433 573 427C545.7 421 518.3 441 491 452C463.7 463 436.3 465 409 463C381.7 461 354.3 455 327 445C299.7 435 272.3 421 245.2 422C218 423 191 439 163.8 451C136.7 463 109.3 471 82 471C54.7 471 27.3 463 13.7 459L0 455Z" fill="#0059dd"></path><path d="M0 601L13.7 601C27.3 601 54.7 601 82 601C109.3 601 136.7 601 163.8 601C191 601 218 601 245.2 601C272.3 601 299.7 601 327 601C354.3 601 381.7 601 409 601C436.3 601 463.7 601 491 601C518.3 601 545.7 601 573 601C600.3 601 627.7 601 654.8 601C682 601 709 601 736.2 601C763.3 601 790.7 601 818 601C845.3 601 872.7 601 886.3 601L900 601L900 545L886.3 543C872.7 541 845.3 537 818 530C790.7 523 763.3 513 736.2 516C709 519 682 535 654.8 535C627.7 535 600.3 519 573 518C545.7 517 518.3 531 491 538C463.7 545 436.3 545 409 541C381.7 537 354.3 529 327 525C299.7 521 272.3 521 245.2 523C218 525 191 529 163.8 531C136.7 533 109.3 533 82 533C54.7 533 27.3 533 13.7 533L0 533Z" fill="#004cbb"></path></svg>